<?xml version="1.0" standalone="no"?><!DOCTYPE svg PUBLIC "-//W3C//DTD SVG 1.1//EN" "http://www.w3.org/Graphics/SVG/1.1/DTD/svg11.dtd"><svg t="1613978167005" class="icon" viewBox="0 0 1024 1024" version="1.1" xmlns="http://www.w3.org/2000/svg" p-id="2623" xmlns:xlink="http://www.w3.org/1999/xlink" width="200" height="200"><defs><style type="text/css"></style></defs><path d="M352.973 831.86c-35.435 0-63.99 28.555-63.99 63.99 0 35.434 28.555 63.989 63.99 63.989s63.99-28.555 63.99-63.99c0-35.434-28.555-63.989-63.99-63.989z m448.097 0c-35.435 0-63.99 28.555-63.99 63.99 0 35.434 28.555 63.989 63.99 63.989s63.989-28.555 63.989-63.99c0-35.434-28.726-63.989-63.99-63.989z m136.235-643.333c-16.341-18.577-38.875-28.554-63.301-28.554H232.907l-2.236-13.073c-5.677-46.616-46.616-82.91-93.232-82.91H97.016c-17.717 0-31.995 14.276-31.995 31.994s14.278 31.994 31.995 31.994h40.251c13.933 0 28.21 12.73 29.93 28.21L198.16 334.74l54.357 382.044c5.676 46.616 46.1 83.083 92.371 83.083H865.06c17.717 0 31.995-14.278 31.995-31.995s-14.278-31.995-31.995-31.995H344.716c-13.589 0-27.006-12.557-28.898-27.522l-5.333-37.327L818.1 639.72c46.1 0 86.695-36.467 92.028-81.362l50.744-288.296c3.612-30.79-4.817-60.549-23.566-81.535z" p-id="2624"></path></svg>